<svg width="103" height="99" viewBox="0 0 103 99" fill="none" xmlns="http://www.w3.org/2000/svg">
<path d="M51.1615 65.1205C69.144 65.1205 83.7217 50.5428 83.7217 32.5603C83.7217 14.5777 69.144 0 51.1615 0C33.1789 0 18.6012 14.5777 18.6012 32.5603C18.6012 50.5428 33.1789 65.1205 51.1615 65.1205Z" fill="#FF7700"/>
<path d="M54.326 23.9116C54.326 21.6637 52.4981 19.8415 50.2432 19.8415C47.9883 19.8415 46.1604 21.6637 46.1604 23.9116V46.2967C46.1604 48.5445 47.9883 50.3668 50.2432 50.3668C52.4981 50.3668 54.326 48.5445 54.326 46.2967V23.9116Z" fill="white"/>
<path d="M41.0566 31.5431C41.0566 29.2953 39.2287 27.4731 36.9738 27.4731C34.7189 27.4731 32.891 29.2953 32.891 31.5431V46.2971C32.891 48.5449 34.7189 50.3671 36.9738 50.3671C39.2287 50.3671 41.0566 48.5449 41.0566 46.2971V31.5431Z" fill="white"/>
<path d="M67.595 16.789C67.595 14.5411 65.767 12.7189 63.5121 12.7189C61.2573 12.7189 59.4293 14.5411 59.4293 16.789V46.2969C59.4293 48.5448 61.2573 50.367 63.5121 50.367C65.767 50.367 67.595 48.5448 67.595 46.2969V16.789Z" fill="white"/>
<path fill-rule="evenodd" clip-rule="evenodd" d="M2.42099 76.6085C2.09938 76.6095 1.78085 76.5458 1.48436 76.4212C1.19361 76.3009 0.929324 76.1247 0.70654 75.9025C0.486632 75.6832 0.310506 75.4241 0.187577 75.1389C0.0625257 74.8508 0 74.5337 0 74.188C0 73.8424 0.0625257 73.5253 0.187577 73.2369C0.310357 72.9518 0.486312 72.6926 0.70604 72.4733C0.928898 72.2511 1.19327 72.0749 1.48411 71.9546C1.78058 71.8299 2.09911 71.7661 2.42074 71.767C3.09352 71.767 3.66951 72.0026 4.14996 72.4733C4.6304 72.944 4.87025 73.5155 4.87025 74.188C4.87025 74.8606 4.63015 75.4318 4.14996 75.9025C3.66976 76.3732 3.09327 76.6085 2.42074 76.6085H2.42099ZM0.545223 92.7752V78.6549H4.32328V92.7757H0.548222L0.545223 92.7752ZM16.5923 93.0923V91.075C16.2467 91.6707 15.7087 92.1797 14.9787 92.6024C14.2486 93.025 13.3455 93.2364 12.2701 93.2364C11.3697 93.2364 10.5073 93.0488 9.69074 92.6744C8.87609 92.301 8.14202 91.7725 7.5296 91.1182C6.90509 90.4555 6.41039 89.6631 6.04549 88.7408C5.68059 87.8184 5.49526 86.81 5.49526 85.715C5.49526 84.6201 5.67784 83.6117 6.04549 82.6893C6.41314 81.7669 6.90509 80.9746 7.5296 80.3118C8.14202 79.6576 8.87609 79.129 9.69074 78.7557C10.4993 78.3827 11.3796 78.1909 12.2701 78.1937C13.3455 78.1937 14.2489 78.405 14.9787 78.8277C15.7085 79.2504 16.2467 79.7593 16.5926 80.3548L16.5941 78.6546H20.3676V99H16.5926V93.0926L16.5923 93.0923ZM13.0479 89.7494C13.5473 89.7494 14.0228 89.6581 14.4742 89.4758C14.9225 89.2954 15.3294 89.0256 15.6702 88.683C16.0161 88.3374 16.2947 87.9147 16.506 87.415C16.7174 86.9153 16.8229 86.3488 16.8229 85.7148C16.8229 85.0808 16.7174 84.5143 16.506 84.0146C16.2947 83.5149 16.0158 83.0924 15.6702 82.7465C15.3294 82.404 14.9225 82.1344 14.4742 81.954C14.021 81.7712 13.5366 81.6783 13.0479 81.6804C12.5577 81.6785 12.0723 81.7765 11.6213 81.9685C11.1742 82.1576 10.7681 82.4316 10.4253 82.7753C10.0796 83.1212 9.80103 83.5439 9.58995 84.0433C9.37886 84.5428 9.27307 85.1 9.27307 85.7148C9.27307 86.3295 9.37861 86.8868 9.58995 87.3862C9.80128 87.8857 10.0801 88.3083 10.4253 88.6542C10.7681 88.998 11.1742 89.272 11.6213 89.4611C12.0723 89.6531 12.5577 89.7514 13.0479 89.7494ZM33.8452 78.1937C34.9406 78.1937 35.9443 78.3813 36.8564 78.7557C37.7685 79.1301 38.5566 79.6485 39.2199 80.3118C39.8832 80.9751 40.4014 81.7669 40.776 82.6893C41.1507 83.6117 41.338 84.6201 41.338 85.715C41.338 86.81 41.1504 87.8184 40.776 88.7408C40.4016 89.6631 39.8827 90.4555 39.2199 91.1182C38.5571 91.781 37.7693 92.2997 36.8564 92.6744C35.9435 93.049 34.9401 93.2364 33.8452 93.2364C32.7502 93.2364 31.7461 93.0488 30.8339 92.6744C29.9218 92.3 29.1337 91.781 28.4705 91.1182C27.8072 90.4555 27.289 89.6631 26.9143 88.7408C26.5397 87.8184 26.3523 86.81 26.3523 85.715C26.3523 84.6201 26.5399 83.6117 26.9143 82.6893C27.2887 81.7669 27.8077 80.9746 28.4705 80.3118C29.1332 79.649 29.9211 79.1301 30.8339 78.7557C31.7468 78.3813 32.7502 78.1937 33.8452 78.1937ZM33.8452 89.7494C34.3254 89.7494 34.7916 89.6581 35.2433 89.4758C35.6915 89.2954 36.0985 89.0256 36.4393 88.683C36.7849 88.3374 37.0588 87.9147 37.2603 87.415C37.4619 86.9153 37.5605 86.3488 37.5605 85.7148C37.5605 85.0808 37.4597 84.5143 37.2603 84.0146C37.061 83.5149 36.7851 83.0924 36.4393 82.7465C36.0984 82.404 35.6915 82.1344 35.2433 81.954C34.7995 81.773 34.3247 81.6801 33.8454 81.6804C33.346 81.6804 32.875 81.7716 32.4336 81.954C31.9909 82.137 31.5892 82.4064 31.2519 82.7465C30.9062 83.0924 30.6324 83.5151 30.4308 84.0146C30.2292 84.514 30.1307 85.0808 30.1307 85.7148C30.1307 86.3488 30.2314 86.9153 30.4308 87.415C30.6301 87.9147 30.906 88.3371 31.2519 88.683C31.5892 89.0231 31.9909 89.2926 32.4336 89.4756C32.8753 89.6581 33.346 89.7492 33.8454 89.7492L33.8452 89.7494ZM42.1691 78.6549H45.9457V80.3548C46.2901 79.7596 46.828 79.2504 47.5581 78.8277C48.2881 78.405 49.1912 78.1937 50.2667 78.1937C51.157 78.1909 52.0373 78.3827 52.8458 78.7557C53.6605 79.129 54.3946 79.6576 55.0071 80.3118C55.6316 80.9746 56.1264 81.7669 56.4913 82.6893C56.8562 83.6117 57.0415 84.6201 57.0415 85.715C57.0415 86.81 56.8589 87.8184 56.4913 88.7408C56.1236 89.6631 55.6316 90.4555 55.0071 91.1182C54.3946 91.7725 53.6605 92.3011 52.8458 92.6744C52.0372 93.0473 51.157 93.2391 50.2667 93.2364C49.1907 93.2364 48.2879 93.025 47.5581 92.6024C46.8283 92.1797 46.2901 91.6707 45.9444 91.075V98.9997H42.1714V78.6549H42.1691ZM49.4889 89.7494C49.9883 89.7494 50.4638 89.6534 50.9155 89.4613C51.3624 89.2722 51.7685 88.9982 52.1112 88.6545C52.4571 88.3086 52.7357 87.8859 52.947 87.3865C53.1584 86.887 53.2639 86.3298 53.2639 85.715C53.2639 85.1003 53.1584 84.543 52.947 84.0436C52.7357 83.5441 52.4568 83.1215 52.1112 82.7756C51.7685 82.4319 51.3624 82.1579 50.9155 81.9687C50.4645 81.7767 49.979 81.6787 49.4889 81.6806C48.9894 81.6806 48.514 81.7719 48.0623 81.9542C47.6141 82.1346 47.2073 82.4043 46.8665 82.7468C46.5207 83.0927 46.242 83.5154 46.0307 84.0148C45.8194 84.5143 45.7138 85.081 45.7138 85.715C45.7138 86.349 45.8194 86.9155 46.0307 87.4152C46.242 87.9149 46.5209 88.3374 46.8665 88.6832C47.2073 89.0258 47.6141 89.2954 48.0623 89.4758C48.5156 89.6586 49.0001 89.7516 49.4889 89.7494ZM59.1121 81.8847H56.6361V78.6546H59.1121V74.3321H62.8871V78.6546H66.3453V81.8847H62.8874V87.3602C62.8874 87.6868 62.9209 87.9892 62.9882 88.2681C63.0555 88.5469 63.1853 88.7818 63.3773 88.9739C63.6462 89.2815 64.0306 89.4351 64.5303 89.4351C64.8569 89.4351 65.1163 89.4013 65.3056 89.334C65.499 89.2662 65.683 89.1743 65.8534 89.0604L66.9195 92.3743C66.4651 92.5899 65.9861 92.7496 65.4932 92.85C64.984 92.9555 64.422 93.0083 63.8075 93.0083C63.0965 93.0083 62.4577 92.8982 61.891 92.6769C61.3242 92.4555 60.8488 92.1534 60.4644 91.769C59.564 90.9047 59.1101 89.6752 59.1101 88.0805V81.8847H59.1121ZM70.0296 76.611C69.708 76.612 69.3894 76.5483 69.0929 76.4237C68.8021 76.3035 68.5377 76.1272 68.3149 75.905C68.0951 75.6857 67.919 75.4266 67.7962 75.1414C67.6711 74.8533 67.6086 74.5362 67.6086 74.1905C67.6086 73.8449 67.6711 73.5278 67.7962 73.2394C67.919 72.9542 68.0951 72.6951 68.3149 72.4758C68.5377 72.2536 68.8019 72.0774 69.0927 71.9571C69.3892 71.8324 69.7079 71.7686 70.0296 71.7695C70.7019 71.7695 71.2783 72.0051 71.7585 72.4758C72.2387 72.9465 72.4788 73.518 72.4788 74.1905C72.4788 74.8631 72.2387 75.4343 71.7585 75.905C71.5328 76.1331 71.2633 76.3133 70.9662 76.4346C70.6691 76.5559 70.3505 76.6159 70.0296 76.611ZM68.1538 92.7777V78.6549H71.9289V92.7757H68.1538V92.7777ZM80.5989 78.1962C81.6939 78.1962 82.6978 78.3838 83.6102 78.7582C84.5225 79.1326 85.3109 79.651 85.9736 80.3143C86.6364 80.9776 87.1551 81.7694 87.5298 82.6918C87.9044 83.6142 88.0918 84.6226 88.0918 85.7175C88.0918 86.8125 87.9042 87.8209 87.5298 88.7433C87.1554 89.6656 86.6364 90.458 85.9736 91.1207C85.3109 91.7835 84.523 92.3022 83.6107 92.6769C82.6983 93.0515 81.6941 93.2389 80.5994 93.2389C79.5047 93.2389 78.5006 93.0513 77.5882 92.6769C76.6758 92.3025 75.888 91.7835 75.2252 91.1207C74.5624 90.458 74.0437 89.6656 73.6691 88.7433C73.2944 87.8209 73.1071 86.8125 73.1071 85.7175C73.1071 84.6226 73.2947 83.6142 73.6691 82.6918C74.0435 81.7694 74.5624 80.9771 75.2252 80.3143C75.888 79.6515 76.6758 79.1326 77.5882 78.7582C78.5006 78.3838 79.5045 78.1962 80.5994 78.1962H80.5989ZM80.5989 89.7519C81.0781 89.7521 81.5528 89.6592 81.9965 89.4783C82.4448 89.2979 82.8517 89.0281 83.1925 88.6855C83.5384 88.3399 83.812 87.9172 84.0138 87.4175C84.2157 86.9178 84.314 86.3513 84.314 85.7173C84.314 85.0833 84.2129 84.5168 84.0138 84.0171C83.8148 83.5174 83.5386 83.0949 83.1925 82.7491C82.8517 82.4065 82.4448 82.1369 81.9965 81.9565C81.5528 81.7755 81.0781 81.6826 80.5989 81.6829C80.0995 81.6829 79.6285 81.7741 79.1869 81.9565C78.7443 82.1395 78.3426 82.409 78.0054 82.7491C77.6595 83.0949 77.3856 83.5176 77.184 84.0171C76.9824 84.5165 76.8839 85.0833 76.8839 85.7173C76.8839 86.3513 76.9847 86.9178 77.184 87.4175C77.3834 87.9172 77.6592 88.3396 78.0054 88.6855C78.3426 89.0256 78.7443 89.295 79.1869 89.4781C79.6288 89.6606 80.0997 89.7519 80.5989 89.7519ZM92.4388 80.5016H92.6694C93.1111 79.7906 93.7068 79.2261 94.4561 78.8159C95.2054 78.4058 96.0603 78.1964 97.0207 78.1964C97.9046 78.1964 98.6826 78.3405 99.3549 78.6286C100.027 78.9167 100.58 79.3251 101.012 79.8534C101.445 80.3816 101.771 81.0156 101.992 81.7554C102.213 82.4952 102.323 83.316 102.323 84.2189V92.7779H98.5481V84.6776C98.5481 83.6597 98.3225 82.9054 97.8708 82.4154C97.4191 81.9255 96.7613 81.6806 95.897 81.6806C95.3783 81.6806 94.9216 81.7907 94.5282 82.012C94.1323 82.2347 93.7884 82.5393 93.5195 82.9054C93.2409 83.28 93.0293 83.7217 92.8855 84.2309C92.7417 84.7401 92.6694 85.2828 92.6694 85.8566V92.7729H88.8941V78.6521H92.4388V80.4966V80.5016Z" fill="white"/>
</svg>
